<svg width="1000" height="1000" viewBox="0 0 1000 1000" fill="none" xmlns="http://www.w3.org/2000/svg">
<circle cx="500" cy="500" r="500" fill="white"/>
<path d="M285.571 524.766C285.571 549.311 265.673 569.21 241.127 569.21C216.581 569.21 196.683 549.311 196.683 524.766C196.683 500.22 216.581 480.322 241.127 480.322C265.673 480.322 285.571 500.22 285.571 524.766Z" fill="#DB447F"/>
<path fill-rule="evenodd" clip-rule="evenodd" d="M327.826 318.534C324.842 312.965 320.736 309.191 315.508 307.211C296.492 299.666 277.687 294.837 259.093 292.724C240.613 290.221 222.569 290.007 204.961 292.079C187.243 293.842 170.13 297.658 153.62 303.527C128.856 312.331 105.857 325.392 84.6227 342.711C63.3883 360.03 45.3096 381.984 30.3866 408.574C27.5822 413.409 26.7249 418.773 27.8148 424.666C28.6815 430.638 30.8319 435.98 34.2657 440.691C37.2361 442.376 37.7422 442.315 38.7457 442.196C39.4278 442.114 40.3398 442.005 42.4115 442.398C46.1499 443.2 49.114 439.765 52.5967 435.728C53.6759 434.477 54.8049 433.168 56.0222 431.91C67.9908 419.63 79.9537 408.747 91.9109 399.263C103.758 389.468 116.046 380.913 128.774 373.596C141.502 366.28 155.117 360.044 169.618 354.889C184.12 349.734 198.615 345.976 213.105 343.616C227.485 340.946 242.306 339.516 257.567 339.324C272.828 339.133 289.086 340.331 306.34 342.92C308.279 343.152 310.515 343.584 312.818 344.028C319.245 345.269 326.184 346.609 328.573 343.962C329.383 342.953 330.064 342.266 330.623 341.702C332.23 340.081 332.834 339.472 332.604 335.154C332.517 329.253 330.924 323.713 327.826 318.534ZM317.619 416.721C315.406 412.601 312.358 409.812 308.473 408.353C294.34 402.791 280.36 399.24 266.535 397.7C252.794 395.872 239.375 395.736 226.277 397.294C213.098 398.623 200.365 401.471 188.079 405.839C169.65 412.391 152.527 422.093 136.712 434.945C120.897 447.797 107.423 464.077 96.289 483.785C94.1969 487.369 93.5523 491.343 94.355 495.705C94.9918 500.126 96.5839 504.079 99.1315 507.562C101.679 511.046 104.856 513.144 108.663 513.857C112.303 514.628 116.04 513.041 119.874 509.096C128.792 499.988 137.703 491.914 146.608 484.875C155.432 477.607 164.582 471.255 174.058 465.821C183.533 460.387 193.667 455.751 204.459 451.915C215.251 448.078 226.036 445.277 236.816 443.51C247.514 441.514 258.538 440.435 269.888 440.273C281.239 440.111 293.328 440.977 306.157 442.872C311.621 443.511 315.562 442.498 317.98 439.831C320.317 436.934 321.373 433.331 321.15 429.021C321.093 424.652 319.916 420.552 317.619 416.721Z" fill="#DB447F"/>
<path d="M710.791 755.394C710.791 779.939 690.892 799.837 666.347 799.837C641.801 799.837 621.903 779.939 621.903 755.394C621.903 730.848 641.801 710.95 666.347 710.95C690.892 710.95 710.791 730.848 710.791 755.394Z" fill="#DB447F"/>
<path fill-rule="evenodd" clip-rule="evenodd" d="M224.737 600.713L281.987 761.88C286.791 775.334 293.038 785.183 300.725 791.429C308.893 797.676 319.464 800.799 332.436 800.799C345.409 800.799 355.499 797.676 362.706 791.429C370.394 785.183 376.64 775.574 381.445 762.601L499.963 427.922L604.487 725.876C610.943 699.341 634.027 679.314 662.079 677.457C663.49 677.364 664.913 677.317 666.347 677.317C667.386 677.317 668.419 677.341 669.445 677.391C698.909 678.802 723.123 700.244 728.767 728.396L868.646 335.94C873.931 320.564 872.97 307.592 865.763 297.021C858.556 286.451 847.265 281.166 831.89 281.166C819.397 281.166 809.547 284.289 802.34 290.535C795.133 296.781 789.368 306.15 785.043 318.643L665.776 666.667L547.208 320.084C542.404 306.631 536.638 296.781 529.911 290.535C523.185 284.289 514.056 281.166 502.524 281.166C490.993 281.166 481.624 284.289 474.417 290.535C467.209 296.781 461.204 306.39 456.399 319.363L335.646 661.71L299.68 564.213C289.956 586.928 267.4 602.843 241.128 602.843C235.461 602.843 229.967 602.102 224.737 600.713Z" fill="#484748"/>
</svg>
